<svg id="visual" viewBox="0 0 900 600" width="900" height="600" xmlns="http://www.w3.org/2000/svg" xmlns:xlink="http://www.w3.org/1999/xlink" version="1.1"><rect x="0" y="0" width="900" height="600" fill="#001220"></rect><path d="M0 384L21.5 391C43 398 86 412 128.8 409.5C171.7 407 214.3 388 257.2 386.3C300 384.7 343 400.3 385.8 398.8C428.7 397.3 471.3 378.7 514.2 376.3C557 374 600 388 642.8 400.5C685.7 413 728.3 424 771.2 424.8C814 425.7 857 416.3 878.5 411.7L900 407L900 601L878.5 601C857 601 814 601 771.2 601C728.3 601 685.7 601 642.8 601C600 601 557 601 514.2 601C471.3 601 428.7 601 385.8 601C343 601 300 601 257.2 601C214.3 601 171.7 601 128.8 601C86 601 43 601 21.5 601L0 601Z" fill="#fa7268"></path><path d="M0 407L21.5 405.2C43 403.3 86 399.7 128.8 408C171.7 416.3 214.3 436.7 257.2 449.3C300 462 343 467 385.8 463.5C428.7 460 471.3 448 514.2 439C557 430 600 424 642.8 417.2C685.7 410.3 728.3 402.7 771.2 403.8C814 405 857 415 878.5 420L900 425L900 601L878.5 601C857 601 814 601 771.2 601C728.3 601 685.7 601 642.8 601C600 601 557 601 514.2 601C471.3 601 428.7 601 385.8 601C343 601 300 601 257.2 601C214.3 601 171.7 601 128.8 601C86 601 43 601 21.5 601L0 601Z" fill="#ef5f67"></path><path d="M0 449L21.5 455.5C43 462 86 475 128.8 479.2C171.7 483.3 214.3 478.7 257.2 470.8C300 463 343 452 385.8 447.3C428.7 442.7 471.3 444.3 514.2 445.2C557 446 600 446 642.8 456.7C685.7 467.3 728.3 488.7 771.2 498.8C814 509 857 508 878.5 507.5L900 507L900 601L878.5 601C857 601 814 601 771.2 601C728.3 601 685.7 601 642.8 601C600 601 557 601 514.2 601C471.3 601 428.7 601 385.8 601C343 601 300 601 257.2 601C214.3 601 171.7 601 128.8 601C86 601 43 601 21.5 601L0 601Z" fill="#e34c67"></path><path d="M0 539L21.5 537.3C43 535.7 86 532.3 128.8 525.8C171.7 519.3 214.3 509.7 257.2 505C300 500.3 343 500.7 385.8 502.3C428.7 504 471.3 507 514.2 509.5C557 512 600 514 642.8 513.2C685.7 512.3 728.3 508.7 771.2 509.8C814 511 857 517 878.5 520L900 523L900 601L878.5 601C857 601 814 601 771.2 601C728.3 601 685.7 601 642.8 601C600 601 557 601 514.2 601C471.3 601 428.7 601 385.8 601C343 601 300 601 257.2 601C214.3 601 171.7 601 128.8 601C86 601 43 601 21.5 601L0 601Z" fill="#d53867"></path><path d="M0 545L21.5 549.8C43 554.7 86 564.3 128.8 560.8C171.7 557.3 214.3 540.7 257.2 533.3C300 526 343 528 385.8 528.3C428.7 528.7 471.3 527.3 514.2 530C557 532.7 600 539.3 642.8 545.2C685.7 551 728.3 556 771.2 559.5C814 563 857 565 878.5 566L900 567L900 601L878.5 601C857 601 814 601 771.2 601C728.3 601 685.7 601 642.8 601C600 601 557 601 514.2 601C471.3 601 428.7 601 385.8 601C343 601 300 601 257.2 601C214.3 601 171.7 601 128.8 601C86 601 43 601 21.5 601L0 601Z" fill="#c62368"></path></svg>